<?xml version="1.0" standalone="no"?>
<!DOCTYPE svg PUBLIC "-//W3C//DTD SVG 1.1//EN"
"http://www.w3.org/Graphics/SVG/1.1/DTD/svg11.dtd">

<svg width="195" height="229" view_box="0 0 195 229"
xmlns="http://www.w3.org/2000/svg"
xmlns:link="http://www.w3.org/1999/xlink">\n\n<desc>Généré par Mocodo 2.3.7 le Mon, 23 May 2022 12:14:46</desc>

<rect id="frame" x="0" y="0" width="195" height="229" fill="#f7f7f7" stroke="none" stroke-width="0"/>

<!-- Association Write -->
<line x1="46" y1="60" x2="46" y2="178" stroke="#4393c3" stroke-width="2"/>
<text x="51.0" y="128" fill="#b2182b" font-family="Verdana" font-size="12">0,N</text>
<line x1="144" y1="178" x2="46" y2="178" stroke="#4393c3" stroke-width="2"/>
<text x="76" y="195.0" fill="#b2182b" font-family="Verdana" font-size="12">1,1</text>
<g id="association-Write">
	<path d="M 56 153 a 14 14 90 0 1 14 14 V 178 h -48 V 167 a 14 14 90 0 1 14 -14" fill="#92c5de" stroke="#92c5de" stroke-width="0"/>
	<path d="M 70 178.0 v 11 a 14 14 90 0 1 -14 14 H 36 a 14 14 90 0 1 -14 -14 V 178.0 H 48" fill="#d1e5f0" stroke="#d1e5f0" stroke-width="0"/>
	<rect x="22" y="153" width="48" height="50" fill="none" rx="14" stroke="#4393c3" stroke-width="2"/>
	<line x1="22" y1="178" x2="70" y2="178" stroke="#4393c3" stroke-width="1"/>
	<text x="29" y="170.7" fill="#000000" font-family="Verdana" font-size="12">Write</text>
</g>

<!-- Entity ARTICLE -->
<g id="entity-ARTICLE">
	<g id="frame-ARTICLE">
		<rect x="102" y="136" width="84" height="25" fill="#f4a582" stroke="#f4a582" stroke-width="0"/>
		<rect x="102" y="161.0" width="84" height="59" fill="#fddbc7" stroke="#fddbc7" stroke-width="0"/>
		<rect x="102" y="136" width="84" height="84" fill="none" stroke="#d6604d" stroke-width="2"/>
		<line x1="102" y1="161" x2="186" y2="161" stroke="#d6604d" stroke-width="1"/>
	</g>
	<text x="117" y="153.7" fill="#000000" font-family="Verdana" font-size="12">ARTICLE</text>
	<text x="107" y="178.8" fill="#000000" font-family="Verdana" font-size="12">article_code</text>
	<line x1="107" y1="181" x2="181" y2="181" stroke="#000000" stroke-width="1"/>
	<text x="107" y="195.8" fill="#000000" font-family="Verdana" font-size="12">title</text>
	<text x="107" y="212.8" fill="#000000" font-family="Verdana" font-size="12">description</text>
</g>

<!-- Entity USER -->
<g id="entity-USER">
	<g id="frame-USER">
		<rect x="9" y="9" width="74" height="25" fill="#f4a582" stroke="#f4a582" stroke-width="0"/>
		<rect x="9" y="34.0" width="74" height="77" fill="#fddbc7" stroke="#fddbc7" stroke-width="0"/>
		<rect x="9" y="9" width="74" height="102" fill="none" stroke="#d6604d" stroke-width="2"/>
		<line x1="9" y1="34" x2="83" y2="34" stroke="#d6604d" stroke-width="1"/>
	</g>
	<text x="29" y="26.7" fill="#000000" font-family="Verdana" font-size="12">USER</text>
	<text x="14" y="51.7" fill="#000000" font-family="Verdana" font-size="12">user_code</text>
	<line x1="14" y1="54" x2="77" y2="54" stroke="#000000" stroke-width="1"/>
	<text x="14" y="68.8" fill="#000000" font-family="Verdana" font-size="12">email</text>
	<text x="14" y="85.8" fill="#000000" font-family="Verdana" font-size="12">password</text>
	<text x="14" y="102.8" fill="#000000" font-family="Verdana" font-size="12">roles</text>
</g>
</svg>